<?xml version="1.0" encoding="UTF-8"?><svg width="24px" height="24px" viewBox="0 0 24 24" version="1.1" xmlns="http://www.w3.org/2000/svg" xmlns:xlink="http://www.w3.org/1999/xlink">    <!-- Generator: Sketch 62 (91390) - https://sketch.com -->    <title>BAN/BAN005</title>    <desc>Created with Sketch.</desc>    <g id="BAN/BAN005" stroke="none" stroke-width="1" fill="none" fill-rule="evenodd">        <path d="M15.7575657,9.22493649 L12.6262277,3.80937734 C12.3874555,3.39636566 12.222459,2.95383415 12.1308386,2.5 L12.0000666,2.7263187 C11.2250225,4.06681154 11.2250225,5.71806043 11.9999334,7.05855326 L14.5051104,11.3911867 C15.2800213,12.7315466 15.2800213,14.3830614 14.5051104,15.7235543 L14.3742051,15.949873 C14.2825848,15.4960388 14.1175883,15.0535073 13.8788161,14.6404956 L10.1211839,8.14174488 C9.88241169,7.72873319 9.71754836,7.28620168 9.62579485,6.83236754 L9.49502281,7.05868623 C8.72264207,8.39465802 8.72024503,10.0393913 9.48743217,11.3774906 L12.0000666,15.7235543 C12.7751107,17.0639141 12.7751107,18.715429 12.0000666,20.0559218 L11.8691614,20.2822405 C11.777541,19.8284064 11.6125445,19.3858749 11.3737723,18.9729961 L8.2425675,13.557304 C7.82255219,12.8310098 7.63065552,12.0133637 7.66581216,11.203297 C4.31367979,12.0778552 2,13.9346792 2,16.0845738 C2,19.0753847 6.47714485,21.5 12.0000666,21.5 C17.5228551,21.5 22,19.0753847 22,16.0845738 C22,13.9345462 19.6865865,12.0771904 16.3341878,11.2027651 C16.3044911,10.5180912 16.1125945,9.83886918 15.7575657,9.22493649 Z" id="Path-Copy-7" fill="#EC0000"></path>    </g></svg>